{
  "schemaVersion": 1,
  "presetCount": 43,
  "presets": [
    {
      "index": 0,
      "name": "Four on the Floor",
      "description": "Classic club groove with straight 8th hats and polymetric open hat",
      "activeLaneCount": 4,
      "notesInBar": 112,
      "seed": 1,
      "lanes": [
        {
          "laneIndex": 0,
          "noteNumber": 36,
          "roleLabel": "kick",
          "role": "AnchorPulse",
          "cycleSteps": 4,
          "subdivision": 4,
          "stepLen": 4,
          "hits": 4,
          "rotation": 0,
          "velocity": 110,
          "probability": 1
        },
        {
          "laneIndex": 1,
          "noteNumber": 38,
          "roleLabel": "snare",
          "role": "Backbeat",
          "cycleSteps": 4,
          "subdivision": 4,
          "stepLen": 4,
          "hits": 2,
          "rotation": 0,
          "velocity": 100,
          "probability": 1
        },
        {
          "laneIndex": 2,
          "noteNumber": 42,
          "roleLabel": "hat",
          "role": "Shimmer",
          "cycleSteps": 8,
          "subdivision": 8,
          "stepLen": 2,
          "hits": 8,
          "rotation": 0,
          "velocity": 80,
          "probability": 0.95
        },
        {
          "laneIndex": 3,
          "noteNumber": 46,
          "roleLabel": "openhat",
          "role": "Ghost",
          "cycleSteps": 7,
          "subdivision": 8,
          "stepLen": 2,
          "hits": 4,
          "rotation": 0,
          "velocity": 60,
          "probability": 0.7
        }
      ]
    },
    {
      "index": 1,
      "name": "Polymetric Drift",
      "description": "Prime-number cycles (3, 5, 7, 11) creating evolving phase patterns",
      "activeLaneCount": 4,
      "notesInBar": 4620,
      "seed": 7,
      "lanes": [
        {
          "laneIndex": 0,
          "noteNumber": 36,
          "roleLabel": "kick",
          "role": "AnchorPulse",
          "cycleSteps": 3,
          "subdivision": 4,
          "stepLen": 4,
          "hits": 2,
          "rotation": 0,
          "velocity": 105,
          "probability": 1
        },
        {
          "laneIndex": 1,
          "noteNumber": 37,
          "roleLabel": "rim",
          "role": "Accent",
          "cycleSteps": 5,
          "subdivision": 16,
          "stepLen": 1,
          "hits": 3,
          "rotation": 0,
          "velocity": 85,
          "probability": 0.9
        },
        {
          "laneIndex": 2,
          "noteNumber": 45,
          "roleLabel": "tom",
          "role": "Ghost",
          "cycleSteps": 7,
          "subdivision": 16,
          "stepLen": 1,
          "hits": 4,
          "rotation": 0,
          "velocity": 70,
          "probability": 0.8
        },
        {
          "laneIndex": 3,
          "noteNumber": 42,
          "roleLabel": "hat",
          "role": "Shimmer",
          "cycleSteps": 11,
          "subdivision": 16,
          "stepLen": 1,
          "hits": 7,
          "rotation": 0,
          "velocity": 65,
          "probability": 0.85
        }
      ]
    },
    {
      "index": 2,
      "name": "Sparse Pulse",
      "description": "Minimal, spacious groove with wide spacing and gentle ghost notes",
      "activeLaneCount": 3,
      "notesInBar": 120,
      "seed": 23,
      "lanes": [
        {
          "laneIndex": 0,
          "noteNumber": 36,
          "roleLabel": "kick",
          "role": "AnchorPulse",
          "cycleSteps": 2,
          "subdivision": 4,
          "stepLen": 4,
          "hits": 1,
          "rotation": 0,
          "velocity": 100,
          "probability": 1
        },
        {
          "laneIndex": 1,
          "noteNumber": 37,
          "roleLabel": "rim",
          "role": "Ornament",
          "cycleSteps": 3,
          "subdivision": 8,
          "stepLen": 2,
          "hits": 2,
          "rotation": 0,
          "velocity": 70,
          "probability": 0.8
        },
        {
          "laneIndex": 2,
          "noteNumber": 39,
          "roleLabel": "clap",
          "role": "Ghost",
          "cycleSteps": 5,
          "subdivision": 16,
          "stepLen": 1,
          "hits": 2,
          "rotation": 0,
          "velocity": 45,
          "probability": 0.6
        }
      ]
    },
    {
      "index": 3,
      "name": "Breakbeat",
      "description": "Syncopated kick with punchy snare, fast hats and ghost toms",
      "activeLaneCount": 4,
      "notesInBar": 560,
      "seed": 42,
      "lanes": [
        {
          "laneIndex": 0,
          "noteNumber": 36,
          "roleLabel": "kick",
          "role": "AnchorPulse",
          "cycleSteps": 5,
          "subdivision": 16,
          "stepLen": 1,
          "hits": 3,
          "rotation": 0,
          "velocity": 115,
          "probability": 1
        },
        {
          "laneIndex": 1,
          "noteNumber": 38,
          "roleLabel": "snare",
          "role": "Backbeat",
          "cycleSteps": 4,
          "subdivision": 4,
          "stepLen": 4,
          "hits": 2,
          "rotation": 0,
          "velocity": 105,
          "probability": 1
        },
        {
          "laneIndex": 2,
          "noteNumber": 42,
          "roleLabel": "hat",
          "role": "Shimmer",
          "cycleSteps": 16,
          "subdivision": 16,
          "stepLen": 1,
          "hits": 12,
          "rotation": 0,
          "velocity": 75,
          "probability": 0.9
        },
        {
          "laneIndex": 3,
          "noteNumber": 45,
          "roleLabel": "tom",
          "role": "Ghost",
          "cycleSteps": 7,
          "subdivision": 16,
          "stepLen": 1,
          "hits": 3,
          "rotation": 0,
          "velocity": 55,
          "probability": 0.65
        }
      ]
    },
    {
      "index": 4,
      "name": "Latin Feel",
      "description": "Clave-inspired pattern with conga, shaker and cowbell ornaments",
      "activeLaneCount": 4,
      "notesInBar": 560,
      "seed": 13,
      "lanes": [
        {
          "laneIndex": 0,
          "noteNumber": 75,
          "roleLabel": "clave",
          "role": "AnchorPulse",
          "cycleSteps": 5,
          "subdivision": 16,
          "stepLen": 1,
          "hits": 3,
          "rotation": 0,
          "velocity": 95,
          "probability": 1
        },
        {
          "laneIndex": 1,
          "noteNumber": 63,
          "roleLabel": "conga",
          "role": "Accent",
          "cycleSteps": 7,
          "subdivision": 8,
          "stepLen": 2,
          "hits": 4,
          "rotation": 0,
          "velocity": 85,
          "probability": 0.9
        },
        {
          "laneIndex": 2,
          "noteNumber": 70,
          "roleLabel": "shaker",
          "role": "Shimmer",
          "cycleSteps": 16,
          "subdivision": 16,
          "stepLen": 1,
          "hits": 12,
          "rotation": 0,
          "velocity": 55,
          "probability": 0.85
        },
        {
          "laneIndex": 3,
          "noteNumber": 56,
          "roleLabel": "cowbell",
          "role": "Ornament",
          "cycleSteps": 4,
          "subdivision": 4,
          "stepLen": 4,
          "hits": 3,
          "rotation": 0,
          "velocity": 75,
          "probability": 0.8
        }
      ]
    },
    {
      "index": 5,
      "name": "Afro-House Phrases",
      "description": "Offset phrase loops — shaker continuous, conga and djembe breathe on staggered cycles",
      "activeLaneCount": 5,
      "notesInBar": 1680,
      "seed": 31,
      "lanes": [
        {
          "laneIndex": 0,
          "noteNumber": 36,
          "roleLabel": "kick",
          "role": "AnchorPulse",
          "cycleSteps": 4,
          "subdivision": 4,
          "stepLen": 4,
          "hits": 3,
          "rotation": 0,
          "velocity": 110,
          "probability": 1
        },
        {
          "laneIndex": 1,
          "noteNumber": 70,
          "roleLabel": "shaker",
          "role": "Shimmer",
          "cycleSteps": 16,
          "subdivision": 16,
          "stepLen": 1,
          "hits": 12,
          "rotation": 0,
          "velocity": 60,
          "probability": 0.9
        },
        {
          "laneIndex": 2,
          "noteNumber": 63,
          "roleLabel": "conga",
          "role": "Accent",
          "cycleSteps": 7,
          "subdivision": 8,
          "stepLen": 2,
          "hits": 4,
          "rotation": 0,
          "velocity": 85,
          "probability": 0.9
        },
        {
          "laneIndex": 3,
          "noteNumber": 43,
          "roleLabel": "tom",
          "role": "Ghost",
          "cycleSteps": 5,
          "subdivision": 8,
          "stepLen": 2,
          "hits": 3,
          "rotation": 0,
          "velocity": 70,
          "probability": 0.85
        },
        {
          "laneIndex": 4,
          "noteNumber": 56,
          "roleLabel": "cowbell",
          "role": "Ornament",
          "cycleSteps": 3,
          "subdivision": 4,
          "stepLen": 4,
          "hits": 2,
          "rotation": 0,
          "velocity": 65,
          "probability": 0.75
        }
      ]
    },
    {
      "index": 6,
      "name": "Reich Phasing",
      "description": "Two identical patterns gradually phase apart creating emergent resultant rhythms",
      "activeLaneCount": 3,
      "notesInBar": 80,
      "seed": 47,
      "lanes": [
        {
          "laneIndex": 0,
          "noteNumber": 76,
          "roleLabel": "woodblock",
          "role": "AnchorPulse",
          "cycleSteps": 5,
          "subdivision": 12,
          "stepLen": 1,
          "hits": 3,
          "rotation": 0,
          "velocity": 90,
          "probability": 1
        },
        {
          "laneIndex": 1,
          "noteNumber": 76,
          "roleLabel": "woodblock",
          "role": "AnchorPulse",
          "cycleSteps": 5,
          "subdivision": 12,
          "stepLen": 1,
          "hits": 3,
          "rotation": 0,
          "velocity": 90,
          "probability": 1
        },
        {
          "laneIndex": 2,
          "noteNumber": 42,
          "roleLabel": "hat",
          "role": "Shimmer",
          "cycleSteps": 4,
          "subdivision": 4,
          "stepLen": 4,
          "hits": 4,
          "rotation": 0,
          "velocity": 45,
          "probability": 0.8
        }
      ]
    },
    {
      "index": 7,
      "name": "Kotekan Interlock",
      "description": "Balinese interlocking pair — polos and sangsih fill each other's gaps",
      "activeLaneCount": 4,
      "notesInBar": 336,
      "seed": 55,
      "lanes": [
        {
          "laneIndex": 0,
          "noteNumber": 76,
          "roleLabel": "woodblock",
          "role": "AnchorPulse",
          "cycleSteps": 3,
          "subdivision": 8,
          "stepLen": 2,
          "hits": 3,
          "rotation": 0,
          "velocity": 95,
          "probability": 1
        },
        {
          "laneIndex": 1,
          "noteNumber": 77,
          "roleLabel": "woodblock",
          "role": "Accent",
          "cycleSteps": 3,
          "subdivision": 8,
          "stepLen": 2,
          "hits": 3,
          "rotation": 0,
          "velocity": 85,
          "probability": 0.95
        },
        {
          "laneIndex": 2,
          "noteNumber": 36,
          "roleLabel": "kick",
          "role": "Backbeat",
          "cycleSteps": 4,
          "subdivision": 4,
          "stepLen": 4,
          "hits": 1,
          "rotation": 0,
          "velocity": 100,
          "probability": 1
        },
        {
          "laneIndex": 3,
          "noteNumber": 42,
          "roleLabel": "hat",
          "role": "Ghost",
          "cycleSteps": 7,
          "subdivision": 16,
          "stepLen": 1,
          "hits": 4,
          "rotation": 0,
          "velocity": 50,
          "probability": 0.7
        }
      ]
    },
    {
      "index": 8,
      "name": "Pocket Groove",
      "description": "J Dilla-style micro-timing — kick pushes late, snare pulls early, gentle mutation",
      "activeLaneCount": 4,
      "notesInBar": 80,
      "seed": 71,
      "lanes": [
        {
          "laneIndex": 0,
          "noteNumber": 36,
          "roleLabel": "kick",
          "role": "AnchorPulse",
          "cycleSteps": 4,
          "subdivision": 16,
          "stepLen": 1,
          "hits": 3,
          "rotation": 0,
          "velocity": 110,
          "probability": 1
        },
        {
          "laneIndex": 1,
          "noteNumber": 38,
          "roleLabel": "snare",
          "role": "Backbeat",
          "cycleSteps": 4,
          "subdivision": 4,
          "stepLen": 4,
          "hits": 2,
          "rotation": 0,
          "velocity": 100,
          "probability": 1
        },
        {
          "laneIndex": 2,
          "noteNumber": 42,
          "roleLabel": "hat",
          "role": "Shimmer",
          "cycleSteps": 8,
          "subdivision": 8,
          "stepLen": 2,
          "hits": 6,
          "rotation": 0,
          "velocity": 70,
          "probability": 0.9
        },
        {
          "laneIndex": 3,
          "noteNumber": 39,
          "roleLabel": "clap",
          "role": "Ghost",
          "cycleSteps": 5,
          "subdivision": 16,
          "stepLen": 1,
          "hits": 3,
          "rotation": 0,
          "velocity": 45,
          "probability": 0.65
        }
      ]
    },
    {
      "index": 9,
      "name": "Afrobeat 12/8",
      "description": "Compound-time groove with timeline bell pattern, four-on-the-floor kick and conga ghosts",
      "activeLaneCount": 5,
      "notesInBar": 240,
      "seed": 88,
      "lanes": [
        {
          "laneIndex": 0,
          "noteNumber": 56,
          "roleLabel": "cowbell",
          "role": "AnchorPulse",
          "cycleSteps": 12,
          "subdivision": 8,
          "stepLen": 2,
          "hits": 7,
          "rotation": 0,
          "velocity": 90,
          "probability": 1
        },
        {
          "laneIndex": 1,
          "noteNumber": 36,
          "roleLabel": "kick",
          "role": "Backbeat",
          "cycleSteps": 4,
          "subdivision": 4,
          "stepLen": 4,
          "hits": 4,
          "rotation": 0,
          "velocity": 112,
          "probability": 1
        },
        {
          "laneIndex": 2,
          "noteNumber": 38,
          "roleLabel": "snare",
          "role": "Accent",
          "cycleSteps": 3,
          "subdivision": 8,
          "stepLen": 2,
          "hits": 2,
          "rotation": 0,
          "velocity": 95,
          "probability": 0.9
        },
        {
          "laneIndex": 3,
          "noteNumber": 70,
          "roleLabel": "shaker",
          "role": "Shimmer",
          "cycleSteps": 12,
          "subdivision": 12,
          "stepLen": 1,
          "hits": 12,
          "rotation": 0,
          "velocity": 55,
          "probability": 0.9
        },
        {
          "laneIndex": 4,
          "noteNumber": 63,
          "roleLabel": "conga",
          "role": "Ghost",
          "cycleSteps": 5,
          "subdivision": 8,
          "stepLen": 2,
          "hits": 3,
          "rotation": 0,
          "velocity": 65,
          "probability": 0.8
        }
      ]
    },
    {
      "index": 10,
      "name": "Balkan Aksak",
      "description": "7/8 aksak [2+2+3] additive cells — davul, rim, zurna and darbuka",
      "activeLaneCount": 4,
      "notesInBar": 42,
      "seed": 33,
      "lanes": [
        {
          "laneIndex": 0,
          "noteNumber": 36,
          "roleLabel": "kick",
          "role": "AnchorPulse",
          "cycleSteps": 3,
          "subdivision": 8,
          "stepLen": 2,
          "hits": 2,
          "rotation": 0,
          "velocity": 110,
          "probability": 1
        },
        {
          "laneIndex": 1,
          "noteNumber": 37,
          "roleLabel": "rim",
          "role": "Backbeat",
          "cycleSteps": 3,
          "subdivision": 8,
          "stepLen": 2,
          "hits": 1,
          "rotation": 0,
          "velocity": 95,
          "probability": 1
        },
        {
          "laneIndex": 2,
          "noteNumber": 76,
          "roleLabel": "woodblock",
          "role": "Ornament",
          "cycleSteps": 7,
          "subdivision": 8,
          "stepLen": 2,
          "hits": 4,
          "rotation": 0,
          "velocity": 80,
          "probability": 0.85
        },
        {
          "laneIndex": 3,
          "noteNumber": 43,
          "roleLabel": "tom",
          "role": "Ghost",
          "cycleSteps": 7,
          "subdivision": 8,
          "stepLen": 2,
          "hits": 3,
          "rotation": 0,
          "velocity": 60,
          "probability": 0.75
        }
      ]
    },
    {
      "index": 11,
      "name": "Bossa Nova",
      "description": "Clave timeline with ginga micro-timing — surdo, tamborim, agogo and pandeiro",
      "activeLaneCount": 4,
      "notesInBar": 16,
      "seed": 17,
      "lanes": [
        {
          "laneIndex": 0,
          "noteNumber": 36,
          "roleLabel": "kick",
          "role": "AnchorPulse",
          "cycleSteps": 4,
          "subdivision": 4,
          "stepLen": 4,
          "hits": 2,
          "rotation": 0,
          "velocity": 100,
          "probability": 1
        },
        {
          "laneIndex": 1,
          "noteNumber": 76,
          "roleLabel": "woodblock",
          "role": "Accent",
          "cycleSteps": 16,
          "subdivision": 16,
          "stepLen": 1,
          "hits": 5,
          "rotation": 0,
          "velocity": 85,
          "probability": 1
        },
        {
          "laneIndex": 2,
          "noteNumber": 67,
          "roleLabel": "agogo",
          "role": "Ornament",
          "cycleSteps": 8,
          "subdivision": 8,
          "stepLen": 2,
          "hits": 5,
          "rotation": 0,
          "velocity": 70,
          "probability": 0.85
        },
        {
          "laneIndex": 3,
          "noteNumber": 70,
          "roleLabel": "shaker",
          "role": "Shimmer",
          "cycleSteps": 16,
          "subdivision": 16,
          "stepLen": 1,
          "hits": 12,
          "rotation": 0,
          "velocity": 50,
          "probability": 0.9
        }
      ]
    },
    {
      "index": 12,
      "name": "Carnatic Tala",
      "description": "Adi tala [4+2+2] additive cells — mridangam, ghatam and kanjira",
      "activeLaneCount": 4,
      "notesInBar": 240,
      "seed": 44,
      "lanes": [
        {
          "laneIndex": 0,
          "noteNumber": 36,
          "roleLabel": "kick",
          "role": "AnchorPulse",
          "cycleSteps": 3,
          "subdivision": 4,
          "stepLen": 4,
          "hits": 2,
          "rotation": 0,
          "velocity": 105,
          "probability": 1
        },
        {
          "laneIndex": 1,
          "noteNumber": 43,
          "roleLabel": "tom",
          "role": "Accent",
          "cycleSteps": 3,
          "subdivision": 4,
          "stepLen": 4,
          "hits": 3,
          "rotation": 0,
          "velocity": 90,
          "probability": 0.95
        },
        {
          "laneIndex": 2,
          "noteNumber": 42,
          "roleLabel": "hat",
          "role": "Shimmer",
          "cycleSteps": 8,
          "subdivision": 8,
          "stepLen": 2,
          "hits": 5,
          "rotation": 0,
          "velocity": 65,
          "probability": 0.85
        },
        {
          "laneIndex": 3,
          "noteNumber": 39,
          "roleLabel": "clap",
          "role": "Ghost",
          "cycleSteps": 5,
          "subdivision": 8,
          "stepLen": 2,
          "hits": 3,
          "rotation": 0,
          "velocity": 50,
          "probability": 0.7
        }
      ]
    },
    {
      "index": 13,
      "name": "IDM Glitch",
      "description": "Irregular additive cells with heavy mutation and erratic micro-timing offsets",
      "activeLaneCount": 5,
      "notesInBar": 13860,
      "seed": 99,
      "lanes": [
        {
          "laneIndex": 0,
          "noteNumber": 36,
          "roleLabel": "kick",
          "role": "AnchorPulse",
          "cycleSteps": 4,
          "subdivision": 16,
          "stepLen": 1,
          "hits": 3,
          "rotation": 0,
          "velocity": 115,
          "probability": 0.9
        },
        {
          "laneIndex": 1,
          "noteNumber": 38,
          "roleLabel": "snare",
          "role": "Backbeat",
          "cycleSteps": 5,
          "subdivision": 16,
          "stepLen": 1,
          "hits": 2,
          "rotation": 0,
          "velocity": 100,
          "probability": 0.75
        },
        {
          "laneIndex": 2,
          "noteNumber": 42,
          "roleLabel": "hat",
          "role": "Shimmer",
          "cycleSteps": 9,
          "subdivision": 16,
          "stepLen": 1,
          "hits": 6,
          "rotation": 0,
          "velocity": 70,
          "probability": 0.85
        },
        {
          "laneIndex": 3,
          "noteNumber": 45,
          "roleLabel": "tom",
          "role": "Ghost",
          "cycleSteps": 7,
          "subdivision": 16,
          "stepLen": 1,
          "hits": 3,
          "rotation": 0,
          "velocity": 55,
          "probability": 0.6
        },
        {
          "laneIndex": 4,
          "noteNumber": 56,
          "roleLabel": "cowbell",
          "role": "Ornament",
          "cycleSteps": 11,
          "subdivision": 16,
          "stepLen": 1,
          "hits": 4,
          "rotation": 0,
          "velocity": 75,
          "probability": 0.7
        }
      ]
    },
    {
      "index": 14,
      "name": "Sub-Saharan: Agbekor",
      "description": "Ewe-inspired polymetric ensemble — gankogui bell timeline, kidi, sogo and lead drum",
      "activeLaneCount": 4,
      "notesInBar": 840,
      "seed": 77,
      "lanes": [
        {
          "laneIndex": 0,
          "noteNumber": 56,
          "roleLabel": "cowbell",
          "role": "AnchorPulse",
          "cycleSteps": 12,
          "subdivision": 8,
          "stepLen": 2,
          "hits": 7,
          "rotation": 0,
          "velocity": 95,
          "probability": 1
        },
        {
          "laneIndex": 1,
          "noteNumber": 63,
          "roleLabel": "conga",
          "role": "Accent",
          "cycleSteps": 5,
          "subdivision": 12,
          "stepLen": 1,
          "hits": 5,
          "rotation": 0,
          "velocity": 85,
          "probability": 0.95
        },
        {
          "laneIndex": 2,
          "noteNumber": 43,
          "roleLabel": "tom",
          "role": "Ghost",
          "cycleSteps": 3,
          "subdivision": 12,
          "stepLen": 1,
          "hits": 3,
          "rotation": 0,
          "velocity": 75,
          "probability": 0.9
        },
        {
          "laneIndex": 3,
          "noteNumber": 38,
          "roleLabel": "snare",
          "role": "Ornament",
          "cycleSteps": 7,
          "subdivision": 12,
          "stepLen": 1,
          "hits": 4,
          "rotation": 0,
          "velocity": 70,
          "probability": 0.8
        }
      ]
    },
    {
      "index": 15,
      "name": "Gamelan: Colotomic",
      "description": "Javanese colotomic nesting — ketuk, kempul, kenong and gong ageng at 4:8:16:32 ratios",
      "activeLaneCount": 4,
      "notesInBar": 128,
      "seed": 63,
      "lanes": [
        {
          "laneIndex": 0,
          "noteNumber": 76,
          "roleLabel": "woodblock",
          "role": "Shimmer",
          "cycleSteps": 4,
          "subdivision": 4,
          "stepLen": 4,
          "hits": 1,
          "rotation": 0,
          "velocity": 70,
          "probability": 1
        },
        {
          "laneIndex": 1,
          "noteNumber": 67,
          "roleLabel": "agogo",
          "role": "Accent",
          "cycleSteps": 8,
          "subdivision": 4,
          "stepLen": 4,
          "hits": 1,
          "rotation": 0,
          "velocity": 80,
          "probability": 1
        },
        {
          "laneIndex": 2,
          "noteNumber": 56,
          "roleLabel": "cowbell",
          "role": "Backbeat",
          "cycleSteps": 16,
          "subdivision": 4,
          "stepLen": 4,
          "hits": 1,
          "rotation": 0,
          "velocity": 90,
          "probability": 1
        },
        {
          "laneIndex": 3,
          "noteNumber": 36,
          "roleLabel": "kick",
          "role": "AnchorPulse",
          "cycleSteps": 32,
          "subdivision": 4,
          "stepLen": 4,
          "hits": 1,
          "rotation": 0,
          "velocity": 110,
          "probability": 1
        }
      ]
    },
    {
      "index": 16,
      "name": "Polymetric Foundation",
      "description": "Two-lane polymetric demonstration — 12-step bell against 7-step counter pattern",
      "activeLaneCount": 2,
      "notesInBar": 168,
      "seed": 101,
      "lanes": [
        {
          "laneIndex": 0,
          "noteNumber": 56,
          "roleLabel": "cowbell",
          "role": "AnchorPulse",
          "cycleSteps": 12,
          "subdivision": 8,
          "stepLen": 2,
          "hits": 7,
          "rotation": 0,
          "velocity": 90,
          "probability": 1
        },
        {
          "laneIndex": 1,
          "noteNumber": 42,
          "roleLabel": "hat",
          "role": "Accent",
          "cycleSteps": 7,
          "subdivision": 8,
          "stepLen": 2,
          "hits": 5,
          "rotation": 0,
          "velocity": 80,
          "probability": 1
        }
      ]
    },
    {
      "index": 17,
      "name": "Ewe Polymetric Ensemble",
      "description": "Gankogui bell timeline with support, responding, and interlocking lead drums",
      "activeLaneCount": 4,
      "notesInBar": 840,
      "seed": 102,
      "lanes": [
        {
          "laneIndex": 0,
          "noteNumber": 56,
          "roleLabel": "cowbell",
          "role": "AnchorPulse",
          "cycleSteps": 12,
          "subdivision": 8,
          "stepLen": 2,
          "hits": 7,
          "rotation": 0,
          "velocity": 110,
          "probability": 1
        },
        {
          "laneIndex": 1,
          "noteNumber": 43,
          "roleLabel": "tom",
          "role": "Accent",
          "cycleSteps": 12,
          "subdivision": 8,
          "stepLen": 2,
          "hits": 3,
          "rotation": 0,
          "velocity": 90,
          "probability": 1
        },
        {
          "laneIndex": 2,
          "noteNumber": 45,
          "roleLabel": "tom",
          "role": "Ghost",
          "cycleSteps": 5,
          "subdivision": 8,
          "stepLen": 2,
          "hits": 3,
          "rotation": 0,
          "velocity": 85,
          "probability": 0.9
        },
        {
          "laneIndex": 3,
          "noteNumber": 47,
          "roleLabel": "tom",
          "role": "Ornament",
          "cycleSteps": 7,
          "subdivision": 8,
          "stepLen": 2,
          "hits": 5,
          "rotation": 2,
          "velocity": 75,
          "probability": 0.85
        }
      ]
    },
    {
      "index": 18,
      "name": "Manding Djembe",
      "description": "Three-lane djembe ensemble — dunun, sangban, and lead sharing an 8-step cycle",
      "activeLaneCount": 3,
      "notesInBar": 16,
      "seed": 103,
      "lanes": [
        {
          "laneIndex": 0,
          "noteNumber": 36,
          "roleLabel": "kick",
          "role": "AnchorPulse",
          "cycleSteps": 8,
          "subdivision": 8,
          "stepLen": 2,
          "hits": 3,
          "rotation": 0,
          "velocity": 100,
          "probability": 1
        },
        {
          "laneIndex": 1,
          "noteNumber": 43,
          "roleLabel": "tom",
          "role": "Accent",
          "cycleSteps": 8,
          "subdivision": 8,
          "stepLen": 2,
          "hits": 5,
          "rotation": 1,
          "velocity": 85,
          "probability": 0.95
        },
        {
          "laneIndex": 2,
          "noteNumber": 50,
          "roleLabel": "tom",
          "role": "Shimmer",
          "cycleSteps": 8,
          "subdivision": 8,
          "stepLen": 2,
          "hits": 7,
          "rotation": 0,
          "velocity": 95,
          "probability": 0.9
        }
      ]
    },
    {
      "index": 19,
      "name": "Cuban Son Montuno",
      "description": "Clave matrix with cascara, tumbao bass, conga, and shaker layers",
      "activeLaneCount": 5,
      "notesInBar": 16,
      "seed": 104,
      "lanes": [
        {
          "laneIndex": 0,
          "noteNumber": 75,
          "roleLabel": "clave",
          "role": "AnchorPulse",
          "cycleSteps": 16,
          "subdivision": 16,
          "stepLen": 1,
          "hits": 5,
          "rotation": 0,
          "velocity": 100,
          "probability": 1
        },
        {
          "laneIndex": 1,
          "noteNumber": 37,
          "roleLabel": "rim",
          "role": "Accent",
          "cycleSteps": 8,
          "subdivision": 8,
          "stepLen": 2,
          "hits": 5,
          "rotation": 1,
          "velocity": 80,
          "probability": 0.95
        },
        {
          "laneIndex": 2,
          "noteNumber": 36,
          "roleLabel": "kick",
          "role": "Backbeat",
          "cycleSteps": 8,
          "subdivision": 8,
          "stepLen": 2,
          "hits": 3,
          "rotation": 0,
          "velocity": 95,
          "probability": 1
        },
        {
          "laneIndex": 3,
          "noteNumber": 63,
          "roleLabel": "conga",
          "role": "Ghost",
          "cycleSteps": 16,
          "subdivision": 16,
          "stepLen": 1,
          "hits": 7,
          "rotation": 2,
          "velocity": 85,
          "probability": 0.9
        },
        {
          "laneIndex": 4,
          "noteNumber": 70,
          "roleLabel": "shaker",
          "role": "Shimmer",
          "cycleSteps": 8,
          "subdivision": 8,
          "stepLen": 2,
          "hits": 7,
          "rotation": 0,
          "velocity": 50,
          "probability": 0.85
        }
      ]
    },
    {
      "index": 20,
      "name": "Afrobeat Lagos",
      "description": "Extended Afrobeat groove — bell timeline with staggered phrase gating on snare, shaker, and conga",
      "activeLaneCount": 6,
      "notesInBar": 48,
      "seed": 105,
      "lanes": [
        {
          "laneIndex": 0,
          "noteNumber": 56,
          "roleLabel": "cowbell",
          "role": "AnchorPulse",
          "cycleSteps": 12,
          "subdivision": 8,
          "stepLen": 2,
          "hits": 7,
          "rotation": 0,
          "velocity": 105,
          "probability": 1
        },
        {
          "laneIndex": 1,
          "noteNumber": 42,
          "roleLabel": "hat",
          "role": "Shimmer",
          "cycleSteps": 16,
          "subdivision": 16,
          "stepLen": 1,
          "hits": 13,
          "rotation": 0,
          "velocity": 70,
          "probability": 0.9
        },
        {
          "laneIndex": 2,
          "noteNumber": 36,
          "roleLabel": "kick",
          "role": "Backbeat",
          "cycleSteps": 16,
          "subdivision": 16,
          "stepLen": 1,
          "hits": 3,
          "rotation": 0,
          "velocity": 110,
          "probability": 1
        },
        {
          "laneIndex": 3,
          "noteNumber": 38,
          "roleLabel": "snare",
          "role": "Accent",
          "cycleSteps": 16,
          "subdivision": 16,
          "stepLen": 1,
          "hits": 5,
          "rotation": 3,
          "velocity": 90,
          "probability": 0.9
        },
        {
          "laneIndex": 4,
          "noteNumber": 70,
          "roleLabel": "shaker",
          "role": "Ornament",
          "cycleSteps": 12,
          "subdivision": 8,
          "stepLen": 2,
          "hits": 9,
          "rotation": 2,
          "velocity": 55,
          "probability": 0.85
        },
        {
          "laneIndex": 5,
          "noteNumber": 63,
          "roleLabel": "conga",
          "role": "Ghost",
          "cycleSteps": 8,
          "subdivision": 8,
          "stepLen": 2,
          "hits": 3,
          "rotation": 1,
          "velocity": 80,
          "probability": 0.8
        }
      ]
    },
    {
      "index": 21,
      "name": "Balinese Kotekan",
      "description": "Polos and sangsih interlocking with jegogan bass and reyong accents",
      "activeLaneCount": 4,
      "notesInBar": 32,
      "seed": 106,
      "lanes": [
        {
          "laneIndex": 0,
          "noteNumber": 72,
          "roleLabel": "shaker",
          "role": "AnchorPulse",
          "cycleSteps": 8,
          "subdivision": 16,
          "stepLen": 1,
          "hits": 5,
          "rotation": 0,
          "velocity": 90,
          "probability": 1
        },
        {
          "laneIndex": 1,
          "noteNumber": 74,
          "roleLabel": "guiro",
          "role": "Accent",
          "cycleSteps": 8,
          "subdivision": 16,
          "stepLen": 1,
          "hits": 5,
          "rotation": 0,
          "velocity": 85,
          "probability": 0.95
        },
        {
          "laneIndex": 2,
          "noteNumber": 48,
          "roleLabel": "tom",
          "role": "Backbeat",
          "cycleSteps": 8,
          "subdivision": 4,
          "stepLen": 4,
          "hits": 2,
          "rotation": 0,
          "velocity": 100,
          "probability": 1
        },
        {
          "laneIndex": 3,
          "noteNumber": 67,
          "roleLabel": "agogo",
          "role": "Ghost",
          "cycleSteps": 16,
          "subdivision": 16,
          "stepLen": 1,
          "hits": 5,
          "rotation": 3,
          "velocity": 75,
          "probability": 0.85
        }
      ]
    },
    {
      "index": 22,
      "name": "Javanese Colotomic",
      "description": "Nested colotomic hierarchy — ketuk, kempul, kenong, and gong at 4:8:16:32",
      "activeLaneCount": 4,
      "notesInBar": 128,
      "seed": 107,
      "lanes": [
        {
          "laneIndex": 0,
          "noteNumber": 76,
          "roleLabel": "woodblock",
          "role": "Shimmer",
          "cycleSteps": 4,
          "subdivision": 4,
          "stepLen": 4,
          "hits": 1,
          "rotation": 0,
          "velocity": 70,
          "probability": 1
        },
        {
          "laneIndex": 1,
          "noteNumber": 60,
          "roleLabel": "bongo",
          "role": "Accent",
          "cycleSteps": 8,
          "subdivision": 4,
          "stepLen": 4,
          "hits": 1,
          "rotation": 0,
          "velocity": 85,
          "probability": 1
        },
        {
          "laneIndex": 2,
          "noteNumber": 55,
          "roleLabel": "cymbal",
          "role": "Backbeat",
          "cycleSteps": 16,
          "subdivision": 4,
          "stepLen": 4,
          "hits": 1,
          "rotation": 0,
          "velocity": 95,
          "probability": 1
        },
        {
          "laneIndex": 3,
          "noteNumber": 48,
          "roleLabel": "tom",
          "role": "AnchorPulse",
          "cycleSteps": 32,
          "subdivision": 4,
          "stepLen": 4,
          "hits": 1,
          "rotation": 0,
          "velocity": 110,
          "probability": 1
        }
      ]
    },
    {
      "index": 23,
      "name": "Tintal Groove",
      "description": "Hindustani 16-beat cycle with sam, theka, dugun, and tigun layakari layers",
      "activeLaneCount": 4,
      "notesInBar": 64,
      "seed": 108,
      "lanes": [
        {
          "laneIndex": 0,
          "noteNumber": 36,
          "roleLabel": "kick",
          "role": "AnchorPulse",
          "cycleSteps": 16,
          "subdivision": 4,
          "stepLen": 4,
          "hits": 4,
          "rotation": 0,
          "velocity": 110,
          "probability": 1
        },
        {
          "laneIndex": 1,
          "noteNumber": 38,
          "roleLabel": "snare",
          "role": "Accent",
          "cycleSteps": 16,
          "subdivision": 8,
          "stepLen": 2,
          "hits": 7,
          "rotation": 0,
          "velocity": 90,
          "probability": 0.95
        },
        {
          "laneIndex": 2,
          "noteNumber": 42,
          "roleLabel": "hat",
          "role": "Shimmer",
          "cycleSteps": 16,
          "subdivision": 8,
          "stepLen": 2,
          "hits": 9,
          "rotation": 2,
          "velocity": 70,
          "probability": 0.9
        },
        {
          "laneIndex": 3,
          "noteNumber": 46,
          "roleLabel": "openhat",
          "role": "Ghost",
          "cycleSteps": 16,
          "subdivision": 16,
          "stepLen": 1,
          "hits": 5,
          "rotation": 4,
          "velocity": 55,
          "probability": 0.8
        }
      ]
    },
    {
      "index": 24,
      "name": "Rupak Tal",
      "description": "7-beat Hindustani cycle — sam marker, theka, and counter rhythm",
      "activeLaneCount": 3,
      "notesInBar": 28,
      "seed": 109,
      "lanes": [
        {
          "laneIndex": 0,
          "noteNumber": 36,
          "roleLabel": "kick",
          "role": "AnchorPulse",
          "cycleSteps": 7,
          "subdivision": 4,
          "stepLen": 4,
          "hits": 3,
          "rotation": 0,
          "velocity": 120,
          "probability": 1
        },
        {
          "laneIndex": 1,
          "noteNumber": 38,
          "roleLabel": "snare",
          "role": "Accent",
          "cycleSteps": 7,
          "subdivision": 8,
          "stepLen": 2,
          "hits": 4,
          "rotation": 1,
          "velocity": 85,
          "probability": 0.9
        },
        {
          "laneIndex": 2,
          "noteNumber": 42,
          "roleLabel": "hat",
          "role": "Shimmer",
          "cycleSteps": 7,
          "subdivision": 8,
          "stepLen": 2,
          "hits": 5,
          "rotation": 3,
          "velocity": 70,
          "probability": 0.85
        }
      ]
    },
    {
      "index": 25,
      "name": "Rachenitsa 7/8",
      "description": "Bulgarian rachenitsa — tupan, kaval, and gadulka in seven-beat cycle",
      "activeLaneCount": 4,
      "notesInBar": 14,
      "seed": 110,
      "lanes": [
        {
          "laneIndex": 0,
          "noteNumber": 36,
          "roleLabel": "kick",
          "role": "AnchorPulse",
          "cycleSteps": 7,
          "subdivision": 8,
          "stepLen": 2,
          "hits": 3,
          "rotation": 0,
          "velocity": 110,
          "probability": 1
        },
        {
          "laneIndex": 1,
          "noteNumber": 37,
          "roleLabel": "rim",
          "role": "Backbeat",
          "cycleSteps": 7,
          "subdivision": 8,
          "stepLen": 2,
          "hits": 4,
          "rotation": 2,
          "velocity": 85,
          "probability": 1
        },
        {
          "laneIndex": 2,
          "noteNumber": 76,
          "roleLabel": "woodblock",
          "role": "Ornament",
          "cycleSteps": 7,
          "subdivision": 8,
          "stepLen": 2,
          "hits": 2,
          "rotation": 1,
          "velocity": 75,
          "probability": 0.9
        },
        {
          "laneIndex": 3,
          "noteNumber": 42,
          "roleLabel": "hat",
          "role": "Shimmer",
          "cycleSteps": 7,
          "subdivision": 16,
          "stepLen": 1,
          "hits": 5,
          "rotation": 0,
          "velocity": 65,
          "probability": 0.85
        }
      ]
    },
    {
      "index": 26,
      "name": "Kopanitsa 11/8",
      "description": "Fast Bulgarian kopanitsa — kick, snare, hat, and bell in eleven-beat cycle",
      "activeLaneCount": 4,
      "notesInBar": 22,
      "seed": 111,
      "lanes": [
        {
          "laneIndex": 0,
          "noteNumber": 36,
          "roleLabel": "kick",
          "role": "AnchorPulse",
          "cycleSteps": 11,
          "subdivision": 8,
          "stepLen": 2,
          "hits": 4,
          "rotation": 0,
          "velocity": 115,
          "probability": 1
        },
        {
          "laneIndex": 1,
          "noteNumber": 38,
          "roleLabel": "snare",
          "role": "Backbeat",
          "cycleSteps": 11,
          "subdivision": 8,
          "stepLen": 2,
          "hits": 5,
          "rotation": 3,
          "velocity": 90,
          "probability": 0.95
        },
        {
          "laneIndex": 2,
          "noteNumber": 42,
          "roleLabel": "hat",
          "role": "Shimmer",
          "cycleSteps": 11,
          "subdivision": 16,
          "stepLen": 1,
          "hits": 7,
          "rotation": 0,
          "velocity": 70,
          "probability": 0.9
        },
        {
          "laneIndex": 3,
          "noteNumber": 56,
          "roleLabel": "cowbell",
          "role": "Ornament",
          "cycleSteps": 11,
          "subdivision": 8,
          "stepLen": 2,
          "hits": 3,
          "rotation": 2,
          "velocity": 80,
          "probability": 0.9
        }
      ]
    },
    {
      "index": 27,
      "name": "Reich Phase Process",
      "description": "Gradual phase-shifting — two identical 12-step patterns drifting apart",
      "activeLaneCount": 3,
      "notesInBar": 48,
      "seed": 112,
      "lanes": [
        {
          "laneIndex": 0,
          "noteNumber": 76,
          "roleLabel": "woodblock",
          "role": "AnchorPulse",
          "cycleSteps": 12,
          "subdivision": 8,
          "stepLen": 2,
          "hits": 5,
          "rotation": 0,
          "velocity": 90,
          "probability": 1
        },
        {
          "laneIndex": 1,
          "noteNumber": 76,
          "roleLabel": "woodblock",
          "role": "AnchorPulse",
          "cycleSteps": 12,
          "subdivision": 8,
          "stepLen": 2,
          "hits": 5,
          "rotation": 0,
          "velocity": 85,
          "probability": 1
        },
        {
          "laneIndex": 2,
          "noteNumber": 42,
          "roleLabel": "hat",
          "role": "Shimmer",
          "cycleSteps": 4,
          "subdivision": 4,
          "stepLen": 4,
          "hits": 4,
          "rotation": 0,
          "velocity": 70,
          "probability": 1
        }
      ]
    },
    {
      "index": 28,
      "name": "Riley Layered Entry",
      "description": "Staggered voice entries with phrase gating — foundation plus four gated layers",
      "activeLaneCount": 5,
      "notesInBar": 5040,
      "seed": 113,
      "lanes": [
        {
          "laneIndex": 0,
          "noteNumber": 36,
          "roleLabel": "kick",
          "role": "AnchorPulse",
          "cycleSteps": 8,
          "subdivision": 8,
          "stepLen": 2,
          "hits": 5,
          "rotation": 0,
          "velocity": 95,
          "probability": 1
        },
        {
          "laneIndex": 1,
          "noteNumber": 42,
          "roleLabel": "hat",
          "role": "Accent",
          "cycleSteps": 12,
          "subdivision": 8,
          "stepLen": 2,
          "hits": 7,
          "rotation": 0,
          "velocity": 80,
          "probability": 0.9
        },
        {
          "laneIndex": 2,
          "noteNumber": 56,
          "roleLabel": "cowbell",
          "role": "Shimmer",
          "cycleSteps": 10,
          "subdivision": 8,
          "stepLen": 2,
          "hits": 6,
          "rotation": 0,
          "velocity": 75,
          "probability": 0.85
        },
        {
          "laneIndex": 3,
          "noteNumber": 60,
          "roleLabel": "bongo",
          "role": "Ghost",
          "cycleSteps": 7,
          "subdivision": 8,
          "stepLen": 2,
          "hits": 4,
          "rotation": 0,
          "velocity": 70,
          "probability": 0.8
        },
        {
          "laneIndex": 4,
          "noteNumber": 76,
          "roleLabel": "woodblock",
          "role": "Ornament",
          "cycleSteps": 9,
          "subdivision": 4,
          "stepLen": 4,
          "hits": 3,
          "rotation": 0,
          "velocity": 65,
          "probability": 0.75
        }
      ]
    },
    {
      "index": 29,
      "name": "Nancarrow Tempi",
      "description": "Independent tempo multipliers — anchor, double-time, half-time, and hemiola voices",
      "activeLaneCount": 4,
      "notesInBar": 48,
      "seed": 114,
      "lanes": [
        {
          "laneIndex": 0,
          "noteNumber": 36,
          "roleLabel": "kick",
          "role": "AnchorPulse",
          "cycleSteps": 4,
          "subdivision": 4,
          "stepLen": 4,
          "hits": 4,
          "rotation": 0,
          "velocity": 100,
          "probability": 1
        },
        {
          "laneIndex": 1,
          "noteNumber": 42,
          "roleLabel": "hat",
          "role": "Shimmer",
          "cycleSteps": 8,
          "subdivision": 8,
          "stepLen": 2,
          "hits": 5,
          "rotation": 0,
          "velocity": 70,
          "probability": 0.9
        },
        {
          "laneIndex": 2,
          "noteNumber": 56,
          "roleLabel": "cowbell",
          "role": "Accent",
          "cycleSteps": 3,
          "subdivision": 4,
          "stepLen": 4,
          "hits": 2,
          "rotation": 0,
          "velocity": 85,
          "probability": 1
        },
        {
          "laneIndex": 3,
          "noteNumber": 45,
          "roleLabel": "tom",
          "role": "Ghost",
          "cycleSteps": 6,
          "subdivision": 8,
          "stepLen": 2,
          "hits": 4,
          "rotation": 0,
          "velocity": 75,
          "probability": 0.85
        }
      ]
    },
    {
      "index": 30,
      "name": "Minimal Techno",
      "description": "Four-on-the-floor kick with polymetric 7-step ghost percussion and sparse clap",
      "activeLaneCount": 4,
      "notesInBar": 112,
      "seed": 115,
      "lanes": [
        {
          "laneIndex": 0,
          "noteNumber": 36,
          "roleLabel": "kick",
          "role": "AnchorPulse",
          "cycleSteps": 4,
          "subdivision": 4,
          "stepLen": 4,
          "hits": 4,
          "rotation": 0,
          "velocity": 120,
          "probability": 1
        },
        {
          "laneIndex": 1,
          "noteNumber": 42,
          "roleLabel": "hat",
          "role": "Shimmer",
          "cycleSteps": 16,
          "subdivision": 16,
          "stepLen": 1,
          "hits": 8,
          "rotation": 0,
          "velocity": 75,
          "probability": 0.95
        },
        {
          "laneIndex": 2,
          "noteNumber": 39,
          "roleLabel": "clap",
          "role": "Ghost",
          "cycleSteps": 7,
          "subdivision": 8,
          "stepLen": 2,
          "hits": 5,
          "rotation": 2,
          "velocity": 55,
          "probability": 0.8
        },
        {
          "laneIndex": 3,
          "noteNumber": 38,
          "roleLabel": "snare",
          "role": "Backbeat",
          "cycleSteps": 16,
          "subdivision": 16,
          "stepLen": 1,
          "hits": 2,
          "rotation": 4,
          "velocity": 100,
          "probability": 1
        }
      ]
    },
    {
      "index": 31,
      "name": "Deep House",
      "description": "Swung house groove — open hat, shaker, and rim with moderate swing and humanize",
      "activeLaneCount": 4,
      "notesInBar": 16,
      "seed": 116,
      "lanes": [
        {
          "laneIndex": 0,
          "noteNumber": 36,
          "roleLabel": "kick",
          "role": "AnchorPulse",
          "cycleSteps": 4,
          "subdivision": 4,
          "stepLen": 4,
          "hits": 4,
          "rotation": 0,
          "velocity": 115,
          "probability": 1
        },
        {
          "laneIndex": 1,
          "noteNumber": 46,
          "roleLabel": "openhat",
          "role": "Shimmer",
          "cycleSteps": 16,
          "subdivision": 16,
          "stepLen": 1,
          "hits": 6,
          "rotation": 3,
          "velocity": 70,
          "probability": 0.9
        },
        {
          "laneIndex": 2,
          "noteNumber": 70,
          "roleLabel": "shaker",
          "role": "Ghost",
          "cycleSteps": 16,
          "subdivision": 16,
          "stepLen": 1,
          "hits": 10,
          "rotation": 0,
          "velocity": 50,
          "probability": 0.85
        },
        {
          "laneIndex": 3,
          "noteNumber": 37,
          "roleLabel": "rim",
          "role": "Accent",
          "cycleSteps": 8,
          "subdivision": 8,
          "stepLen": 2,
          "hits": 3,
          "rotation": 1,
          "velocity": 90,
          "probability": 0.9
        }
      ]
    },
    {
      "index": 32,
      "name": "Samba Batucada",
      "description": "Full batucada ensemble — surdo, tamborim, agogo, repinique, and caixa",
      "activeLaneCount": 5,
      "notesInBar": 16,
      "seed": 117,
      "lanes": [
        {
          "laneIndex": 0,
          "noteNumber": 36,
          "roleLabel": "kick",
          "role": "AnchorPulse",
          "cycleSteps": 4,
          "subdivision": 4,
          "stepLen": 4,
          "hits": 2,
          "rotation": 1,
          "velocity": 110,
          "probability": 1
        },
        {
          "laneIndex": 1,
          "noteNumber": 50,
          "roleLabel": "tom",
          "role": "Accent",
          "cycleSteps": 16,
          "subdivision": 16,
          "stepLen": 1,
          "hits": 7,
          "rotation": 2,
          "velocity": 90,
          "probability": 0.95
        },
        {
          "laneIndex": 2,
          "noteNumber": 56,
          "roleLabel": "cowbell",
          "role": "Ornament",
          "cycleSteps": 16,
          "subdivision": 16,
          "stepLen": 1,
          "hits": 5,
          "rotation": 0,
          "velocity": 85,
          "probability": 0.9
        },
        {
          "laneIndex": 3,
          "noteNumber": 47,
          "roleLabel": "tom",
          "role": "Backbeat",
          "cycleSteps": 8,
          "subdivision": 8,
          "stepLen": 2,
          "hits": 3,
          "rotation": 1,
          "velocity": 100,
          "probability": 1
        },
        {
          "laneIndex": 4,
          "noteNumber": 38,
          "roleLabel": "snare",
          "role": "Shimmer",
          "cycleSteps": 16,
          "subdivision": 16,
          "stepLen": 1,
          "hits": 13,
          "rotation": 0,
          "velocity": 70,
          "probability": 0.9
        }
      ]
    },
    {
      "index": 33,
      "name": "Bossa Nova Trio",
      "description": "Intimate bossa — E(5,16) bass, ride cymbal, and ghost brush",
      "activeLaneCount": 3,
      "notesInBar": 16,
      "seed": 118,
      "lanes": [
        {
          "laneIndex": 0,
          "noteNumber": 36,
          "roleLabel": "kick",
          "role": "AnchorPulse",
          "cycleSteps": 16,
          "subdivision": 16,
          "stepLen": 1,
          "hits": 5,
          "rotation": 0,
          "velocity": 95,
          "probability": 1
        },
        {
          "laneIndex": 1,
          "noteNumber": 51,
          "roleLabel": "cymbal",
          "role": "Shimmer",
          "cycleSteps": 8,
          "subdivision": 8,
          "stepLen": 2,
          "hits": 4,
          "rotation": 0,
          "velocity": 65,
          "probability": 0.9
        },
        {
          "laneIndex": 2,
          "noteNumber": 38,
          "roleLabel": "snare",
          "role": "Ghost",
          "cycleSteps": 16,
          "subdivision": 16,
          "stepLen": 1,
          "hits": 9,
          "rotation": 3,
          "velocity": 40,
          "probability": 0.8
        }
      ]
    },
    {
      "index": 34,
      "name": "Classic Funk",
      "description": "JB-style pocket — kick pushes late, snare pulls early, dense ghost layer",
      "activeLaneCount": 4,
      "notesInBar": 16,
      "seed": 119,
      "lanes": [
        {
          "laneIndex": 0,
          "noteNumber": 36,
          "roleLabel": "kick",
          "role": "AnchorPulse",
          "cycleSteps": 16,
          "subdivision": 16,
          "stepLen": 1,
          "hits": 3,
          "rotation": 0,
          "velocity": 110,
          "probability": 1
        },
        {
          "laneIndex": 1,
          "noteNumber": 38,
          "roleLabel": "snare",
          "role": "Backbeat",
          "cycleSteps": 8,
          "subdivision": 8,
          "stepLen": 2,
          "hits": 2,
          "rotation": 4,
          "velocity": 105,
          "probability": 1
        },
        {
          "laneIndex": 2,
          "noteNumber": 38,
          "roleLabel": "snare",
          "role": "Ghost",
          "cycleSteps": 16,
          "subdivision": 16,
          "stepLen": 1,
          "hits": 11,
          "rotation": 0,
          "velocity": 40,
          "probability": 0.85
        },
        {
          "laneIndex": 3,
          "noteNumber": 42,
          "roleLabel": "hat",
          "role": "Shimmer",
          "cycleSteps": 16,
          "subdivision": 16,
          "stepLen": 1,
          "hits": 14,
          "rotation": 0,
          "velocity": 75,
          "probability": 0.9
        }
      ]
    },
    {
      "index": 35,
      "name": "Neo-Soul Pocket",
      "description": "Loose, warm groove with heavy humanize and polymetric 12-step rim click",
      "activeLaneCount": 4,
      "notesInBar": 48,
      "seed": 120,
      "lanes": [
        {
          "laneIndex": 0,
          "noteNumber": 36,
          "roleLabel": "kick",
          "role": "AnchorPulse",
          "cycleSteps": 16,
          "subdivision": 16,
          "stepLen": 1,
          "hits": 4,
          "rotation": 0,
          "velocity": 95,
          "probability": 1
        },
        {
          "laneIndex": 1,
          "noteNumber": 38,
          "roleLabel": "snare",
          "role": "Backbeat",
          "cycleSteps": 8,
          "subdivision": 8,
          "stepLen": 2,
          "hits": 2,
          "rotation": 4,
          "velocity": 90,
          "probability": 0.95
        },
        {
          "laneIndex": 2,
          "noteNumber": 42,
          "roleLabel": "hat",
          "role": "Shimmer",
          "cycleSteps": 16,
          "subdivision": 16,
          "stepLen": 1,
          "hits": 10,
          "rotation": 0,
          "velocity": 60,
          "probability": 0.85
        },
        {
          "laneIndex": 3,
          "noteNumber": 37,
          "roleLabel": "rim",
          "role": "Ornament",
          "cycleSteps": 12,
          "subdivision": 8,
          "stepLen": 2,
          "hits": 5,
          "rotation": 2,
          "velocity": 55,
          "probability": 0.8
        }
      ]
    },
    {
      "index": 36,
      "name": "Jazz Bop Ride",
      "description": "Bop timekeeping — ride and hi-hat foot with mutating kick and snare comp",
      "activeLaneCount": 4,
      "notesInBar": 16,
      "seed": 121,
      "lanes": [
        {
          "laneIndex": 0,
          "noteNumber": 51,
          "roleLabel": "cymbal",
          "role": "AnchorPulse",
          "cycleSteps": 4,
          "subdivision": 4,
          "stepLen": 4,
          "hits": 4,
          "rotation": 0,
          "velocity": 85,
          "probability": 1
        },
        {
          "laneIndex": 1,
          "noteNumber": 44,
          "roleLabel": "hat",
          "role": "Backbeat",
          "cycleSteps": 4,
          "subdivision": 4,
          "stepLen": 4,
          "hits": 2,
          "rotation": 1,
          "velocity": 70,
          "probability": 1
        },
        {
          "laneIndex": 2,
          "noteNumber": 36,
          "roleLabel": "kick",
          "role": "Ghost",
          "cycleSteps": 8,
          "subdivision": 8,
          "stepLen": 2,
          "hits": 3,
          "rotation": 0,
          "velocity": 80,
          "probability": 0.9
        },
        {
          "laneIndex": 3,
          "noteNumber": 38,
          "roleLabel": "snare",
          "role": "Ornament",
          "cycleSteps": 16,
          "subdivision": 16,
          "stepLen": 1,
          "hits": 5,
          "rotation": 2,
          "velocity": 65,
          "probability": 0.8
        }
      ]
    },
    {
      "index": 37,
      "name": "Elvin Jones Cascade",
      "description": "Polyrhythmic cascade — 4, 3, 5, and 7-step cycles with swing and mutation",
      "activeLaneCount": 4,
      "notesInBar": 1680,
      "seed": 122,
      "lanes": [
        {
          "laneIndex": 0,
          "noteNumber": 51,
          "roleLabel": "cymbal",
          "role": "AnchorPulse",
          "cycleSteps": 4,
          "subdivision": 4,
          "stepLen": 4,
          "hits": 3,
          "rotation": 0,
          "velocity": 90,
          "probability": 1
        },
        {
          "laneIndex": 1,
          "noteNumber": 38,
          "roleLabel": "snare",
          "role": "Accent",
          "cycleSteps": 3,
          "subdivision": 4,
          "stepLen": 4,
          "hits": 2,
          "rotation": 0,
          "velocity": 75,
          "probability": 0.9
        },
        {
          "laneIndex": 2,
          "noteNumber": 45,
          "roleLabel": "tom",
          "role": "Ghost",
          "cycleSteps": 5,
          "subdivision": 4,
          "stepLen": 4,
          "hits": 3,
          "rotation": 1,
          "velocity": 70,
          "probability": 0.85
        },
        {
          "laneIndex": 3,
          "noteNumber": 36,
          "roleLabel": "kick",
          "role": "Ornament",
          "cycleSteps": 7,
          "subdivision": 4,
          "stepLen": 4,
          "hits": 4,
          "rotation": 2,
          "velocity": 85,
          "probability": 0.9
        }
      ]
    },
    {
      "index": 38,
      "name": "Jungle Break",
      "description": "Syncopated chopped break at 170 — dense ghost layer with rolling undertow",
      "activeLaneCount": 4,
      "notesInBar": 16,
      "seed": 123,
      "lanes": [
        {
          "laneIndex": 0,
          "noteNumber": 36,
          "roleLabel": "kick",
          "role": "AnchorPulse",
          "cycleSteps": 16,
          "subdivision": 16,
          "stepLen": 1,
          "hits": 5,
          "rotation": 3,
          "velocity": 110,
          "probability": 1
        },
        {
          "laneIndex": 1,
          "noteNumber": 38,
          "roleLabel": "snare",
          "role": "Backbeat",
          "cycleSteps": 4,
          "subdivision": 4,
          "stepLen": 4,
          "hits": 2,
          "rotation": 1,
          "velocity": 105,
          "probability": 1
        },
        {
          "laneIndex": 2,
          "noteNumber": 42,
          "roleLabel": "hat",
          "role": "Shimmer",
          "cycleSteps": 16,
          "subdivision": 16,
          "stepLen": 1,
          "hits": 7,
          "rotation": 0,
          "velocity": 80,
          "probability": 0.9
        },
        {
          "laneIndex": 3,
          "noteNumber": 38,
          "roleLabel": "snare",
          "role": "Ghost",
          "cycleSteps": 16,
          "subdivision": 16,
          "stepLen": 1,
          "hits": 11,
          "rotation": 2,
          "velocity": 35,
          "probability": 0.75
        }
      ]
    },
    {
      "index": 39,
      "name": "Liquid Drum and Bass",
      "description": "Clean two-step kick with steady hat and warm ride cymbal wash",
      "activeLaneCount": 4,
      "notesInBar": 16,
      "seed": 124,
      "lanes": [
        {
          "laneIndex": 0,
          "noteNumber": 36,
          "roleLabel": "kick",
          "role": "AnchorPulse",
          "cycleSteps": 8,
          "subdivision": 8,
          "stepLen": 2,
          "hits": 2,
          "rotation": 0,
          "velocity": 100,
          "probability": 1
        },
        {
          "laneIndex": 1,
          "noteNumber": 38,
          "roleLabel": "snare",
          "role": "Backbeat",
          "cycleSteps": 4,
          "subdivision": 4,
          "stepLen": 4,
          "hits": 2,
          "rotation": 1,
          "velocity": 95,
          "probability": 1
        },
        {
          "laneIndex": 2,
          "noteNumber": 42,
          "roleLabel": "hat",
          "role": "Shimmer",
          "cycleSteps": 16,
          "subdivision": 16,
          "stepLen": 1,
          "hits": 9,
          "rotation": 0,
          "velocity": 65,
          "probability": 0.9
        },
        {
          "laneIndex": 3,
          "noteNumber": 51,
          "roleLabel": "cymbal",
          "role": "Ghost",
          "cycleSteps": 8,
          "subdivision": 8,
          "stepLen": 2,
          "hits": 5,
          "rotation": 2,
          "velocity": 55,
          "probability": 0.85
        }
      ]
    },
    {
      "index": 40,
      "name": "Afro-Electronic Fusion",
      "description": "Cuban clave meets techno kick and gamelan-inspired kotekan shimmer",
      "activeLaneCount": 5,
      "notesInBar": 48,
      "seed": 125,
      "lanes": [
        {
          "laneIndex": 0,
          "noteNumber": 75,
          "roleLabel": "clave",
          "role": "AnchorPulse",
          "cycleSteps": 8,
          "subdivision": 8,
          "stepLen": 2,
          "hits": 3,
          "rotation": 0,
          "velocity": 100,
          "probability": 1
        },
        {
          "laneIndex": 1,
          "noteNumber": 36,
          "roleLabel": "kick",
          "role": "Backbeat",
          "cycleSteps": 4,
          "subdivision": 4,
          "stepLen": 4,
          "hits": 4,
          "rotation": 0,
          "velocity": 110,
          "probability": 1
        },
        {
          "laneIndex": 2,
          "noteNumber": 62,
          "roleLabel": "conga",
          "role": "Shimmer",
          "cycleSteps": 12,
          "subdivision": 8,
          "stepLen": 2,
          "hits": 7,
          "rotation": 0,
          "velocity": 70,
          "probability": 0.9
        },
        {
          "laneIndex": 3,
          "noteNumber": 64,
          "roleLabel": "conga",
          "role": "Accent",
          "cycleSteps": 12,
          "subdivision": 8,
          "stepLen": 2,
          "hits": 5,
          "rotation": 2,
          "velocity": 65,
          "probability": 0.85
        },
        {
          "laneIndex": 4,
          "noteNumber": 70,
          "roleLabel": "shaker",
          "role": "Ghost",
          "cycleSteps": 16,
          "subdivision": 16,
          "stepLen": 1,
          "hits": 9,
          "rotation": 3,
          "velocity": 50,
          "probability": 0.8
        }
      ]
    },
    {
      "index": 41,
      "name": "Balkan Funk",
      "description": "7/8 aksak with funk ghost notes and micro-timing on the hi-hat",
      "activeLaneCount": 4,
      "notesInBar": 14,
      "seed": 126,
      "lanes": [
        {
          "laneIndex": 0,
          "noteNumber": 36,
          "roleLabel": "kick",
          "role": "AnchorPulse",
          "cycleSteps": 7,
          "subdivision": 8,
          "stepLen": 2,
          "hits": 3,
          "rotation": 0,
          "velocity": 105,
          "probability": 1
        },
        {
          "laneIndex": 1,
          "noteNumber": 38,
          "roleLabel": "snare",
          "role": "Backbeat",
          "cycleSteps": 7,
          "subdivision": 8,
          "stepLen": 2,
          "hits": 5,
          "rotation": 1,
          "velocity": 85,
          "probability": 0.9
        },
        {
          "laneIndex": 2,
          "noteNumber": 42,
          "roleLabel": "hat",
          "role": "Shimmer",
          "cycleSteps": 14,
          "subdivision": 16,
          "stepLen": 1,
          "hits": 9,
          "rotation": 0,
          "velocity": 55,
          "probability": 0.85
        },
        {
          "laneIndex": 3,
          "noteNumber": 37,
          "roleLabel": "rim",
          "role": "Accent",
          "cycleSteps": 7,
          "subdivision": 8,
          "stepLen": 2,
          "hits": 2,
          "rotation": 3,
          "velocity": 90,
          "probability": 1
        }
      ]
    },
    {
      "index": 42,
      "name": "Compositional Arc",
      "description": "Six-lane layered build — three continuous lanes plus three gated ornamental voices",
      "activeLaneCount": 6,
      "notesInBar": 1680,
      "seed": 127,
      "lanes": [
        {
          "laneIndex": 0,
          "noteNumber": 36,
          "roleLabel": "kick",
          "role": "AnchorPulse",
          "cycleSteps": 4,
          "subdivision": 4,
          "stepLen": 4,
          "hits": 4,
          "rotation": 0,
          "velocity": 110,
          "probability": 1
        },
        {
          "laneIndex": 1,
          "noteNumber": 56,
          "roleLabel": "cowbell",
          "role": "Accent",
          "cycleSteps": 12,
          "subdivision": 8,
          "stepLen": 2,
          "hits": 7,
          "rotation": 0,
          "velocity": 90,
          "probability": 1
        },
        {
          "laneIndex": 2,
          "noteNumber": 42,
          "roleLabel": "hat",
          "role": "Shimmer",
          "cycleSteps": 16,
          "subdivision": 16,
          "stepLen": 1,
          "hits": 11,
          "rotation": 2,
          "velocity": 55,
          "probability": 0.85
        },
        {
          "laneIndex": 3,
          "noteNumber": 63,
          "roleLabel": "conga",
          "role": "Ghost",
          "cycleSteps": 8,
          "subdivision": 8,
          "stepLen": 2,
          "hits": 5,
          "rotation": 1,
          "velocity": 75,
          "probability": 0.85
        },
        {
          "laneIndex": 4,
          "noteNumber": 37,
          "roleLabel": "rim",
          "role": "Ornament",
          "cycleSteps": 7,
          "subdivision": 8,
          "stepLen": 2,
          "hits": 3,
          "rotation": 0,
          "velocity": 85,
          "probability": 0.8
        },
        {
          "laneIndex": 5,
          "noteNumber": 47,
          "roleLabel": "tom",
          "role": "Fill",
          "cycleSteps": 5,
          "subdivision": 8,
          "stepLen": 2,
          "hits": 3,
          "rotation": 2,
          "velocity": 80,
          "probability": 0.75
        }
      ]
    }
  ]
}
